<svg width="18" height="18" viewBox="0 0 18 18" fill="none" xmlns="http://www.w3.org/2000/svg">
<path d="M8.99987 0C5.33338 0 2.35059 2.98279 2.35059 6.64928C2.35059 7.85632 2.89192 9.1545 2.9146 9.20926C3.08944 9.62425 3.43442 10.2688 3.68318 10.6467L8.24224 17.5545C8.42881 17.8377 8.70496 18 8.99987 18C9.29479 18 9.57093 17.8377 9.7575 17.5549L14.317 10.6467C14.5661 10.2688 14.9107 9.62425 15.0855 9.20926C15.1082 9.15489 15.6492 7.85671 15.6492 6.64928C15.6492 2.98279 12.6664 0 8.99987 0ZM14.3643 8.90574C14.2082 9.27771 13.8871 9.87731 13.6638 10.216L9.1043 17.1243C9.01434 17.2608 8.98579 17.2608 8.89583 17.1243L4.33638 10.216C4.11304 9.87731 3.79192 9.27731 3.63585 8.90534C3.6292 8.88931 3.13285 7.69439 3.13285 6.64928C3.13285 3.41421 5.7648 0.782269 8.99987 0.782269C12.2349 0.782269 14.8669 3.41421 14.8669 6.64928C14.8669 7.69596 14.3694 8.894 14.3643 8.90574Z" fill="#37474F"/>
<path d="M8.9997 3.12949C7.0585 3.12949 5.47949 4.70889 5.47949 6.6497C5.47949 8.59051 7.0585 10.1699 8.9997 10.1699C10.9409 10.1699 12.5199 8.59051 12.5199 6.6497C12.5199 4.70889 10.9409 3.12949 8.9997 3.12949ZM8.9997 9.38765C7.49031 9.38765 6.26176 8.15948 6.26176 6.6497C6.26176 5.13992 7.49031 3.91176 8.9997 3.91176C10.5091 3.91176 11.7376 5.13992 11.7376 6.6497C11.7376 8.15948 10.5091 9.38765 8.9997 9.38765Z" fill="#37474F"/>
</svg>
