<svg width="18" height="18" viewBox="0 0 18 18" fill="none" xmlns="http://www.w3.org/2000/svg">
<path d="M9 0C4.0372 0 0 4.0372 0 9C0 13.9628 4.0372 18 9 18C13.9628 18 18 13.9628 18 9C18 4.0372 13.9628 0 9 0Z" fill="#8BC34A"/>
<path d="M13.5617 7.09277L8.68666 11.9677C8.54041 12.1139 8.34842 12.1875 8.15643 12.1875C7.96445 12.1875 7.77246 12.1139 7.62621 11.9677L5.18875 9.53023C4.89542 9.23703 4.89542 8.76297 5.18875 8.46977C5.48195 8.17644 5.95587 8.17644 6.24921 8.46977L8.15643 10.377L12.5013 6.03232C12.7945 5.73898 13.2684 5.73898 13.5617 6.03232C13.8549 6.32552 13.8549 6.79944 13.5617 7.09277Z" fill="#FAFAFA"/>
</svg>
